@startuml
Users -- Main
Main -- StudentGUI
Main -- TeacherGUI
Main -- AdminGUI
Login <|-- Main
adminwindow <|-- AdminGUI
studentwindow <|-- StudentGUI
teacherwindow <|-- TeacherGUI
DBConnection <.. Main
DBConnection <.. StudentGUI
DBConnection <.. TeacherGUI
DBConnection <.. AdminGUI
StudentGUI -- Classes
TeacherGUI -- Classes
AdminGUI -- Classes
TeacherGUI -- Changes
AdminGUI -- Changes
AdminGUI -- Courses


class Users{
    id: int
    username: str
    password: str
    fname: str
    lname: str
    email: str
    CPR: int
    address: str
    usertypeid: int
    }
class Main{
    --
    Loginfunktion()
    }
class DBConnection{
    Connection: mysql.connector
    --
    get_connection()
    close_connection()
    check_username()
    check_password()
    get_classes()
    get_classes_on_date()
    CREATE_NEW_CLASSES()
    UPDATE_LOCATION_CLASSES()
    UPDATE_DATE_CLASSES()
    UPDATE_TIMESTART_CLASSES()
    UPDATE_TIMEEND_CLASSES()
    CREATE_CHANGE_FROM_CLASS()
    UPDATE_LOCATION_CHANGES()
    UPDATE_DATE_CHANGES()
    UPDATE_TIMESTART_CHANGES()
    UPDATE_TIMEEND_CHANGES()
    REQUEST_CHANGE_CLASS()
    CHANGE_CLASS()
    APPROVED_CLASS_CHANGE()
    DECLINE_CLASS_CHANGE()
    }
class StudentGUI #lightgray{
    userid
    --
    calendarDateChanged()
    showScheduleOnGivenDate()
    getClasses()
    }
class AdminGUI #lightgray{
    userid
    --
    calendarDateChanged()
    showScheduleOnGivenDate()
    getClasses()
    showScheduleRequests()
    create_new_class()
    accept_change()
    decline_change()
    writeXML()
    readXML()
    findUNI()
    Clear()
    displayInfo()
    }
class TeacherGUI #lightgray{
    userid
    --
    calendarDateChanged()
    showScheduleOnGivenDate()
    getClasses()
    send_request()
    displayInfo()
    }
class Classes{
    classid: int
    location: str
    date: str
    start: str
    end: str
    classcourseID: int
    coursename: str
    }
class Courses{
    courseID: int
    year: int
    university: str
    uniID: int
    program: str
    programID: int
    }
class Changes{
    id: int
    location: str
    date: str
    start: str
    end: str
    courseid: int

    }
class Login #lightgray{
    Username
    Password
    LoginButton
    GlemtLoginButton
    }
class adminwindow #lightgray{
    calendarWidget2: QCalendarWidget
    ScheduleList: QListWidget
    SendAnmodning: QPushButton
    TabWidget: QTabWidget
    --
    addItem()
    clear()
    }
class studentwindow #lightgray{
    calendarWidget2: QCalendarWidget
    ScheduleList: QListWidget
    --
    addItem()
    clear()
    }
class teacherwindow #lightgray{
    calendarWidget2: QCalendarWidget
    ScheduleList: QListWidget
    SendAnmodning: QPushButton
    --
    addItem()
    clear()
    }

@enduml
